<svg id="svg" version="1.1" width="512" height="512" xmlns="http://www.w3.org/2000/svg" xmlns:xlink="http://www.w3.org/1999/xlink" style="display: block;"><g id="svgg"><path id="path0" d="M0.000 200.000 L 0.000 400.000 43.196 400.000 L 86.393 400.000 81.022 394.336 C 20.021 330.008,29.127 238.615,102.344 180.322 C 128.337 159.627,152.296 146.122,213.526 117.653 C 216.614 116.217,224.063 112.753,230.078 109.954 C 316.638 69.677,309.999 39.295,207.056 4.600 L 193.408 -0.000 96.704 -0.000 L 0.000 0.000 0.000 200.000 M221.484 0.921 C 245.111 6.663,254.725 9.195,262.370 11.688 C 318.755 30.077,341.752 54.233,330.122 82.854 C 324.174 97.493,312.370 110.742,277.734 141.658 C 211.221 201.028,194.051 226.875,196.423 264.063 C 200.029 320.607,245.471 361.651,339.844 393.600 L 357.422 399.551 378.711 399.821 L 400.000 400.092 400.000 200.046 L 400.000 0.000 309.180 0.081 C 248.579 0.135,219.399 0.414,221.484 0.921 " stroke="none" fill="#21c4f7" fill-rule="evenodd"></path><path id="path1" d="M206.291 4.246 C 310.079 39.491,316.850 69.579,230.078 109.954 C 224.063 112.753,216.614 116.217,213.526 117.653 C 152.296 146.122,128.337 159.627,102.344 180.322 C 29.127 238.615,20.021 330.008,81.022 394.336 L 86.393 400.000 223.079 399.909 C 298.257 399.860,359.094 399.647,358.272 399.437 C 352.322 397.917,320.233 386.824,311.328 383.209 C 236.687 352.909,199.639 314.493,196.423 264.063 C 194.051 226.875,211.221 201.028,277.734 141.658 C 312.370 110.742,324.174 97.493,330.122 82.854 C 343.905 48.935,308.632 20.973,229.061 2.739 C 218.175 0.245,216.079 0.005,205.623 0.060 L 194.141 0.120 206.291 4.246 " stroke="none" fill="#0a589c" fill-rule="evenodd"></path></g></svg>