<?xml version="1.0" encoding="utf-8"?>
<!-- Generator: Adobe Illustrator 19.0.0, SVG Export Plug-In . SVG Version: 6.00 Build 0)  -->
<svg version="1.1" id="Layer_1" xmlns="http://www.w3.org/2000/svg" xmlns:xlink="http://www.w3.org/1999/xlink" x="0px" y="0px"
	 viewBox="0 0 279.3 279.3" style="enable-background:new 0 0 279.3 279.3;" xml:space="preserve">
<style type="text/css">
	.st0{fill:#4FC3F7;}
	.st1{fill:#01579B;}
</style>
<g id="XMLID_2_">
	<path id="XMLID_5_" class="st0" d="M232.7,48c0,36.4-93.3,76-95.6,128.7c-2.3,45.7,36.4,79.7,114.7,102.6h2.3
		c14,0,25.2-11.2,25.2-25.2v-229c0-14-11.2-25.2-25.2-25.2H150.6C174.9,4.7,232.7,18.7,232.7,48z"/>
	<path id="XMLID_4_" class="st0" d="M34,178.1c17.3-53.2,76-77.4,114.7-95.6c37.8-17.7,106.3-45.7-14-82.5H25.2
		C11.2,0,0,11.2,0,25.2v229c0,14,11.2,25.2,25.2,25.2h35.4C43.8,263.5,17.3,229.4,34,178.1z"/>
	<path id="XMLID_3_" class="st1" d="M137.1,176.7c2.3-52.7,95.6-92.3,95.6-128.7c0-29.4-57.8-43.4-82.1-48h-15.9
		c120.3,36.8,51.8,64.8,13.5,82.5c-38.2,18.2-97.5,42.4-114.7,95.6c-16.3,51.3,10.3,85.8,27,101.2h191.2
		C173,256.5,134.8,222.4,137.1,176.7z"/>
</g>
</svg>
